<?xml version="1.0" encoding="utf-8"?>
<!-- Generator: Adobe Illustrator 24.0.1, SVG Export Plug-In . SVG Version: 6.00 Build 0)  -->
<svg version="1.1" id="Layer_1" xmlns="http://www.w3.org/2000/svg" xmlns:xlink="http://www.w3.org/1999/xlink" x="0px" y="0px"
	 viewBox="0 0 512 512" style="enable-background:new 0 0 512 512;" xml:space="preserve">
<style type="text/css">
	.st0{opacity:0.66;fill:#C5DBED;}
	.st1{opacity:0.66;fill:#9CC6E9;}
	.st2{opacity:0.38;fill:#9CC6E9;}
	.st3{fill:#495E2B;}
	.st4{fill:#638239;}
	.st5{fill:#87A43D;}
	.st6{opacity:0.3;fill:#87A43D;}
	.st7{fill:#9EBE3B;}
	.st8{fill:#334F60;}
	.st9{fill:#D7CAC4;}
	.st10{fill:#7ECFDA;}
	.st11{fill:#092034;}
	.st12{fill:#1D57A6;}
	.st13{fill:#123053;}
	.st14{fill:#CDBCAA;}
	.st15{fill:#F68F43;}
	.st16{fill:#C9EAF7;}
	.st17{fill:#FFFFFF;}
	.st18{fill:none;}
	.st19{fill:#D56D27;}
	.st20{fill:#2B388F;}
	.st21{fill:#DD7229;}
	.st22{fill:url(#SVGID_1_);}
	.st23{fill:url(#SVGID_2_);}
</style>
<g>
	<g>
		<path class="st0" d="M513.5,226.1c-12.8-5.2-26.4-19.1-37.3-8.6c-2.3,2.2-4.2,5.5-6.8,6.9c-6.1,3.4-13.4-4.1-19.3,0.1
			c-2.9,2.1-4.7,6.6-7.6,8.8c-8.6,6.7-16.9-11-26.5-13.7c-5.2-1.4-11.5,1.3-15.2-4.1c-2.9-4.2-3.5-12.4-7.5-13.1
			c-2.2-0.3-4.1,2-5.7,4.2c-20.1,25.8-53.2,34.6-73.2,8.6c-2.4-3.1-4.6-6.7-7.7-7.9c-5.6-2.4-11,3.9-15.8,8.7
			c-18.7,18.6-45.5,17.6-63.5-2.4c-7.3-8-13.3-18.9-21.8-23.8c-18.8-11-39,11.3-59.2,12c-19.2,0.7-36.7-18.2-55.9-18.8
			c-18.2-0.6-34.4,15-50.3,28.1c-12,10-26.8,20-41.1,19.1v267.5h514.4V226.1z"/>
		<path class="st1" d="M244.5,40.9c-0.7-0.5-1.6-1-2.5-1.4c-4-1.6-9.5-0.9-12.7-3.3c-1.6-1.2-2.5-3.2-4.7-3.8
			c-3.1-0.7-6.3,1.9-9.4,1.2c-3.2-0.8-3.1-4-4.2-6.3c-1.3-2.7-5.3-4.6-9.2-4.3c-3.9,0.3-7.3,2.6-7.9,5.5c-4.2-0.6-9-1-12.2,1.1
			c-1.5,1-2.4,2.4-3.6,3.5c-2.9,2.8-8.1,4.2-12.8,3.5c-2.4-0.4-4.6-1.2-6.9-1.9c-2.3-0.6-4.8-1.1-7.2-0.6c-3.1,0.7-4.1,3.2-7.1,4
			c-1.8,0.5-3.5,0.7-5,1.7c-0.2,0.1-0.8,0.6-1.5,1.1H244.5z"/>
		<path class="st2" d="M437.3,49.4c-0.4-0.3-0.7-0.5-1.2-0.7c-1.9-0.8-4.5-0.4-6-1.6c-0.8-0.6-1.2-1.5-2.2-1.8
			c-1.5-0.3-3,0.9-4.4,0.6c-1.5-0.4-1.5-1.9-2-3c-0.6-1.3-2.5-2.2-4.3-2s-3.4,1.2-3.7,2.6c-2-0.3-4.2-0.5-5.7,0.5
			c-0.7,0.5-1.1,1.1-1.7,1.7c-1.4,1.3-3.8,2-6.1,1.7c-1.1-0.2-2.2-0.6-3.3-0.9c-1.1-0.3-2.3-0.5-3.4-0.3c-1.4,0.3-1.9,1.5-3.4,1.9
			c-0.9,0.2-1.6,0.4-2.4,0.8c-0.1,0.1-0.4,0.3-0.7,0.5H437.3z"/>
		<path class="st2" d="M472.6,173.3c-0.3-0.3-0.6-0.5-0.9-0.7c-1.4-0.8-3.4-0.4-4.5-1.6c-0.6-0.6-0.9-1.5-1.7-1.8
			c-1.1-0.3-2.2,0.9-3.4,0.6c-1.1-0.4-1.1-1.9-1.5-3c-0.5-1.3-1.9-2.2-3.3-2c-1.4,0.1-2.6,1.2-2.8,2.6c-1.5-0.3-3.2-0.5-4.3,0.5
			c-0.5,0.5-0.8,1.1-1.3,1.7c-1,1.3-2.9,2-4.6,1.7c-0.9-0.2-1.6-0.6-2.5-0.9c-0.8-0.3-1.7-0.5-2.6-0.3c-1.1,0.3-1.4,1.5-2.5,1.9
			c-0.6,0.2-1.2,0.4-1.8,0.8c-0.1,0.1-0.3,0.3-0.5,0.5H472.6z"/>
		<path class="st1" d="M308.2,22.6c-1.5-0.9-3.5-1.5-5.6-1.9c-0.6-0.1-1.3-0.2-1.8-0.4c-1-0.4-1-1.2-1.6-1.8
			c-0.8-0.8-2.5-1.2-4.1-1.1c-1.6,0.1-3.1,0.5-4.3,1.2c-0.5,0.3-1,0.6-1.7,0.8c-0.5,0.1-1.1,0.1-1.6,0.2c-1.4,0.2-2.2,1.1-3.6,1.2
			c-1.2,0-2.1-0.5-2.8-1c-0.7-0.5-1.6-1-2.8-1c-1.1,0-1.9,0.5-2.3,1c-0.4,0.5-0.5,1.1-1,1.6c-0.4,0.5-1.3,1-2.4,1
			c-1.2,0-2-0.6-3.2-0.5c-0.8,0.1-1.8,0.4-2.3,0.7c-0.1,0.1-0.2,0.1-0.2,0.2H308.2z"/>
		<path class="st1" d="M138,164.8c1.6-0.6,3.6-1.1,5.9-1.4c0.7-0.1,1.4-0.1,1.9-0.3c1-0.3,1-0.9,1.7-1.3c0.8-0.5,2.6-0.8,4.3-0.8
			c1.7,0,3.3,0.4,4.5,0.8c0.6,0.2,1.1,0.5,1.8,0.6c0.5,0.1,1.1,0.1,1.7,0.1c1.4,0.2,2.3,0.8,3.8,0.8c1.2,0,2.2-0.4,2.9-0.7
			c0.7-0.4,1.6-0.7,2.9-0.7c1.1,0,2,0.4,2.4,0.7c0.4,0.4,0.6,0.8,1,1.1c0.5,0.4,1.4,0.7,2.5,0.7c1.2,0,2.1-0.4,3.4-0.3
			c0.8,0,1.9,0.3,2.4,0.5c0.1,0.1,0.2,0.1,0.3,0.2H138z"/>
		<path class="st1" d="M121.3,21.9c-2.7-1.1-6.1-1.9-9.8-2.4c-1.1-0.1-2.3-0.3-3.2-0.5c-1.7-0.5-1.7-1.5-2.8-2.2
			c-1.3-0.9-4.4-1.4-7.2-1.4c-2.8,0.1-5.5,0.7-7.4,1.4c-0.9,0.4-1.8,0.8-3,1C87,18,86,17.9,85.1,18.1c-2.4,0.3-3.8,1.4-6.3,1.4
			c-2,0-3.6-0.6-4.8-1.2c-1.2-0.6-2.7-1.3-4.8-1.3c-1.9,0-3.3,0.6-4.1,1.2c-0.7,0.6-0.9,1.3-1.7,2c-0.8,0.6-2.3,1.2-4.2,1.2
			c-2,0-3.5-0.7-5.7-0.6c-1.3,0.1-3.2,0.5-4,0.9c-0.2,0.1-0.3,0.2-0.4,0.3H121.3z"/>
		<path class="st2" d="M90.9,129.8c-1.4-1.6-3.8-2.3-5.8-3.4c-1.7-0.9-3.2-2.1-4.4-3.5c-0.8-1-1.6-2.1-2.9-2.7
			c-1.2-0.5-2.8-0.4-4,0.1c-3.7,1.4-6.3,4.5-10.4,5.3c-4.3,0.8-4.5-3.5-8.1-3.4c-1.1,0-2,0.7-2.5,1.5c-1,1.6-0.9,4.6-3.7,5.1
			c-1.7,0.3-2.8-1-4.5-0.8c-0.9,0.1-2.2,0.7-2.8,1.3c-0.1,0.1-0.2,0.3-0.3,0.4c10.3,0,20.6,0,30.8,0
			C78.6,129.8,84.7,129.8,90.9,129.8z"/>
		<path class="st1" d="M330.8,134.8c-2.5-1.6-6.7-2.3-10.2-3.4c-3-0.9-5.7-2.1-7.7-3.5c-1.5-1-2.8-2.1-5-2.7
			c-2.2-0.5-4.9-0.4-7.1,0.1c-6.5,1.4-11.1,4.5-18.3,5.3c-7.6,0.8-7.9-3.5-14.3-3.4c-1.9,0-3.6,0.7-4.5,1.5
			c-1.8,1.6-1.7,4.6-6.4,5.1c-2.9,0.3-5-1-7.8-0.8c-1.6,0.1-3.9,0.7-4.9,1.3c-0.2,0.1-0.4,0.3-0.5,0.4c18.1,0,36.2,0,54.3,0
			C309.1,134.8,320,134.8,330.8,134.8z"/>
		<g>
			<g>
				<path class="st3" d="M177.8,446.5l-0.4,0.8l-0.2,0.4l-0.2,0.4l-0.3,0.8l-0.3,0.8l-0.1,0.4l-0.1,0.4c-0.1,0.3-0.1,0.6-0.2,0.9
					c-0.2,0.9-0.2,1.8-0.2,2.7c-0.2-0.4-0.3-0.9-0.5-1.3c-0.3-1.1-0.6-2.1-0.8-3.2c0,1.1,0.2,2.2,0.4,3.3c0.1,0.4,0.2,0.9,0.3,1.3
					c-0.9-1.1-2-2-3.1-2.9c-0.6-0.4-1.1-0.8-1.8-1.2c-0.3-0.2-0.6-0.4-0.9-0.6l-0.9-0.5c-0.3-0.2-0.6-0.3-0.9-0.5l-1-0.4
					c-0.6-0.3-1.3-0.5-2-0.8c0.6,0.3,1.3,0.6,1.9,0.9l0.9,0.5c0.3,0.2,0.6,0.3,0.9,0.5l0.9,0.6c0.3,0.2,0.6,0.4,0.8,0.6
					c0.6,0.4,1.1,0.9,1.6,1.3c1,0.9,2,1.9,2.8,3c0.2,0.3,0.4,0.5,0.6,0.8c0.2,0.3,0.4,0.6,0.5,0.9c0.2,0.4,0.5,0.9,0.7,1.3
					c0.1,0.2,0.1,0.4,0.2,0.6l1.1-0.5c0,0,0,0,0,0l0,0c-0.1-0.2-0.2-0.5-0.3-0.7c-0.1-0.3-0.2-0.5-0.3-0.8c-0.1-0.5-0.3-1.1-0.4-1.6
					c-0.2-1.1-0.2-2.2-0.1-3.4c0-0.3,0.1-0.6,0.1-0.8l0.1-0.4l0.1-0.4l0.2-0.8l0.3-0.8l0.1-0.4l0.2-0.4l0.3-0.8
					c0.2-0.5,0.5-1,0.8-1.5C178.4,445.5,178.1,446,177.8,446.5z"/>
				<path class="st4" d="M198.4,441.5c-13.4,0-24.3,10.9-24.3,24.3h48.7C222.7,452.4,211.8,441.5,198.4,441.5z"/>
				<path class="st4" d="M164.3,450.5c-8.5,0-15.3,6.9-15.3,15.3h30.6C179.6,457.4,172.8,450.5,164.3,450.5z"/>
				<path class="st3" d="M164.3,450.5c-0.8,0-1.6,0.1-2.4,0.2c7.3,1.2,12.9,7.5,12.9,15.1h4.8C179.6,457.4,172.8,450.5,164.3,450.5z
					"/>
				<path class="st3" d="M198.4,441.5c-0.7,0-1.5,0-2.2,0.1c12.4,1.1,22.1,11.5,22.1,24.2h4.4C222.7,452.4,211.8,441.5,198.4,441.5z
					"/>
				<g>
					<path class="st5" d="M195.9,449.7c0,2.8-2.2,5-5,5c-2.8,0-5-2.2-5-5c0-2.8,2.2-5,5-5C193.7,444.7,195.9,446.9,195.9,449.7z"/>
					<path class="st5" d="M184.6,453.4c0,1.2-1,2.1-2.1,2.1c-1.2,0-2.1-1-2.1-2.1c0-1.2,1-2.1,2.1-2.1
						C183.6,451.3,184.6,452.2,184.6,453.4z"/>
				</g>
				<g>
					<circle class="st5" cx="159.6" cy="455" r="2.6"/>
					<path class="st5" d="M156.4,456.9c0,0.6-0.5,1.1-1.1,1.1s-1.1-0.5-1.1-1.1c0-0.6,0.5-1.1,1.1-1.1S156.4,456.3,156.4,456.9z"/>
				</g>
			</g>
			<g>
				<path class="st5" d="M35.8,440l-0.5,1l-0.3,0.5l-0.2,0.5l-0.4,1l-0.3,1.1l-0.2,0.5l-0.1,0.5c-0.1,0.4-0.2,0.7-0.2,1.1
					c-0.2,1.1-0.3,2.3-0.3,3.5c-0.2-0.6-0.4-1.1-0.6-1.7c-0.4-1.3-0.8-2.7-1-4.1c0.1,1.4,0.2,2.8,0.5,4.3c0.1,0.6,0.2,1.1,0.4,1.7
					c-1.2-1.4-2.5-2.6-3.9-3.6c-0.7-0.5-1.5-1.1-2.2-1.5c-0.4-0.2-0.8-0.5-1.2-0.7l-1.2-0.6c-0.4-0.2-0.8-0.4-1.2-0.6l-1.2-0.6
					c-0.8-0.3-1.7-0.7-2.5-1c0.8,0.4,1.6,0.8,2.4,1.2l1.2,0.7c0.4,0.2,0.8,0.4,1.1,0.7l1.1,0.7c0.4,0.2,0.7,0.5,1.1,0.8
					c0.7,0.5,1.4,1.1,2.1,1.7c1.3,1.2,2.5,2.5,3.6,3.9c0.3,0.4,0.5,0.7,0.8,1.1c0.2,0.4,0.5,0.7,0.7,1.1c0.3,0.5,0.6,1.1,0.8,1.7
					c0.1,0.3,0.2,0.5,0.3,0.8l1.4-0.7c0,0,0,0,0,0l0,0c-0.1-0.3-0.3-0.6-0.4-0.9c-0.1-0.3-0.2-0.7-0.3-1c-0.2-0.7-0.4-1.4-0.4-2.1
					c-0.2-1.4-0.3-2.9-0.1-4.3c0-0.4,0.1-0.7,0.1-1.1l0.1-0.5l0.1-0.5l0.2-1.1l0.3-1l0.2-0.5l0.2-0.5l0.4-1c0.3-0.7,0.7-1.3,1-2
					C36.5,438.8,36.1,439.4,35.8,440z"/>
				<path class="st5" d="M62,433.6c-17.1,0-31,13.9-31,31h62C93,447.5,79.1,433.6,62,433.6z"/>
				<path class="st5" d="M18.6,445.1c-10.8,0-19.5,8.7-19.5,19.5h39C38.1,453.8,29.4,445.1,18.6,445.1z"/>
				<path class="st6" d="M18.6,445.1c-1,0-2.1,0.1-3.1,0.2c9.3,1.5,16.5,9.5,16.5,19.3h6.1C38.1,453.8,29.4,445.1,18.6,445.1z"/>
				<path class="st6" d="M62,433.6c-0.9,0-1.9,0-2.8,0.1c15.8,1.4,28.2,14.7,28.2,30.9H93C93,447.5,79.1,433.6,62,433.6z"/>
				<g>
					<circle class="st7" cx="52.5" cy="444" r="6.4"/>
					<path class="st7" d="M44.4,448.8c0,1.5-1.2,2.7-2.7,2.7s-2.7-1.2-2.7-2.7c0-1.5,1.2-2.7,2.7-2.7S44.4,447.3,44.4,448.8z"/>
				</g>
				<g>
					<path class="st7" d="M15.9,450.9c0,1.8-1.5,3.3-3.3,3.3c-1.8,0-3.3-1.5-3.3-3.3c0-1.8,1.5-3.3,3.3-3.3
						C14.4,447.6,15.9,449.1,15.9,450.9z"/>
					<circle class="st7" cx="7.1" cy="453.3" r="1.4"/>
				</g>
			</g>
			<g>
				<path class="st5" d="M417.1,437l-0.6,1.1l-0.3,0.6l-0.2,0.6l-0.5,1.2l-0.4,1.2l-0.2,0.6l-0.1,0.6c-0.1,0.4-0.2,0.8-0.3,1.2
					c-0.2,1.3-0.4,2.6-0.4,3.9c-0.3-0.6-0.5-1.3-0.7-1.9c-0.5-1.5-0.9-3.1-1.1-4.6c0.1,1.6,0.2,3.2,0.6,4.8c0.1,0.6,0.3,1.2,0.4,1.9
					c-1.3-1.5-2.8-2.9-4.4-4.1c-0.8-0.6-1.6-1.2-2.5-1.7c-0.4-0.3-0.8-0.6-1.3-0.8l-1.3-0.7c-0.4-0.3-0.9-0.5-1.4-0.7l-1.4-0.6
					c-0.9-0.4-1.9-0.7-2.8-1.1c0.9,0.4,1.8,0.9,2.7,1.3l1.3,0.7c0.4,0.2,0.9,0.5,1.3,0.8l1.3,0.8c0.4,0.3,0.8,0.6,1.2,0.9
					c0.8,0.6,1.6,1.2,2.3,1.9c1.5,1.3,2.8,2.8,4,4.3c0.3,0.4,0.6,0.8,0.8,1.2c0.3,0.4,0.5,0.8,0.8,1.2c0.3,0.6,0.7,1.3,0.9,1.9
					c0.1,0.3,0.2,0.6,0.3,0.9l1.6-0.8c0,0,0,0,0,0l0,0c-0.1-0.3-0.3-0.7-0.5-1c-0.1-0.4-0.3-0.8-0.4-1.1c-0.2-0.8-0.4-1.5-0.5-2.3
					c-0.2-1.6-0.3-3.2-0.1-4.8c0-0.4,0.1-0.8,0.2-1.2l0.1-0.6l0.1-0.6l0.3-1.2l0.4-1.2l0.2-0.6l0.2-0.6l0.5-1.1
					c0.3-0.8,0.7-1.5,1.1-2.2C417.9,435.6,417.5,436.2,417.1,437z"/>
				<path class="st5" d="M446.6,429.7c-19.3,0-34.9,15.6-34.9,34.9h69.8C481.4,445.3,465.8,429.7,446.6,429.7z"/>
				<path class="st5" d="M397.7,442.6c-12.1,0-22,9.8-22,22h43.9C419.7,452.5,409.9,442.6,397.7,442.6z"/>
				<path class="st6" d="M397.7,442.6c-1.2,0-2.3,0.1-3.4,0.3c10.5,1.7,18.5,10.7,18.5,21.7h6.9
					C419.7,452.5,409.9,442.6,397.7,442.6z"/>
				<path class="st6" d="M446.6,429.7c-1.1,0-2.1,0.1-3.2,0.1c17.8,1.6,31.7,16.5,31.7,34.7h6.3
					C481.4,445.3,465.8,429.7,446.6,429.7z"/>
				<g>
					<circle class="st7" cx="435.8" cy="441.5" r="7.2"/>
					<path class="st7" d="M426.8,446.8c0,1.7-1.4,3.1-3.1,3.1c-1.7,0-3.1-1.4-3.1-3.1s1.4-3.1,3.1-3.1
						C425.4,443.8,426.8,445.1,426.8,446.8z"/>
				</g>
				<g>
					<path class="st7" d="M394.7,449.1c0,2-1.6,3.7-3.7,3.7c-2,0-3.7-1.6-3.7-3.7c0-2,1.6-3.7,3.7-3.7
						C393.1,445.5,394.7,447.1,394.7,449.1z"/>
					<circle class="st7" cx="384.9" cy="451.9" r="1.6"/>
				</g>
			</g>
			<g>
				<path class="st5" d="M311.3,452.9l-0.3,0.5l-0.1,0.3l-0.1,0.3l-0.2,0.6l-0.2,0.6l-0.1,0.3l-0.1,0.3c0,0.2-0.1,0.4-0.1,0.6
					c-0.1,0.6-0.2,1.2-0.2,1.9c-0.1-0.3-0.2-0.6-0.3-0.9c-0.2-0.7-0.4-1.5-0.5-2.2c0,0.8,0.1,1.5,0.3,2.3c0.1,0.3,0.1,0.6,0.2,0.9
					c-0.6-0.7-1.4-1.4-2.1-2c-0.4-0.3-0.8-0.6-1.2-0.8c-0.2-0.1-0.4-0.3-0.6-0.4l-0.6-0.3c-0.2-0.1-0.4-0.2-0.7-0.3l-0.7-0.3
					c-0.4-0.2-0.9-0.4-1.3-0.5c0.4,0.2,0.9,0.4,1.3,0.6l0.6,0.4c0.2,0.1,0.4,0.2,0.6,0.4l0.6,0.4c0.2,0.1,0.4,0.3,0.6,0.4
					c0.4,0.3,0.7,0.6,1.1,0.9c0.7,0.6,1.4,1.3,1.9,2.1c0.1,0.2,0.3,0.4,0.4,0.6c0.1,0.2,0.3,0.4,0.4,0.6c0.2,0.3,0.3,0.6,0.5,0.9
					c0,0.1,0.1,0.3,0.2,0.4l0.8-0.4c0,0,0,0,0,0l0,0c-0.1-0.2-0.1-0.3-0.2-0.5c-0.1-0.2-0.1-0.4-0.2-0.5c-0.1-0.4-0.2-0.7-0.2-1.1
					c-0.1-0.8-0.1-1.5-0.1-2.3c0-0.2,0.1-0.4,0.1-0.6l0-0.3l0.1-0.3l0.1-0.6l0.2-0.6l0.1-0.3l0.1-0.3L311.3,452.9
					c0.3-0.3,0.5-0.7,0.6-1C311.7,452.2,311.5,452.6,311.3,452.9z"/>
				<path class="st5" d="M325.4,449.4c-9.2,0-16.7,7.5-16.7,16.7h33.4C342.1,456.9,334.7,449.4,325.4,449.4z"/>
				<path class="st5" d="M302,455.6c-5.8,0-10.5,4.7-10.5,10.5h21.1C312.5,460.3,307.8,455.6,302,455.6z"/>
				<path class="st6" d="M302,455.6c-0.6,0-1.1,0-1.7,0.1c5,0.8,8.9,5.1,8.9,10.4h3.3C312.5,460.3,307.8,455.6,302,455.6z"/>
				<path class="st6" d="M325.4,449.4c-0.5,0-1,0-1.5,0.1c8.5,0.8,15.2,7.9,15.2,16.7h3C342.1,456.9,334.7,449.4,325.4,449.4z"/>
				<g>
					<path class="st7" d="M323.7,455.1c0,1.9-1.5,3.4-3.4,3.4s-3.4-1.5-3.4-3.4s1.5-3.4,3.4-3.4S323.7,453.2,323.7,455.1z"/>
					<path class="st7" d="M315.9,457.6c0,0.8-0.7,1.5-1.5,1.5c-0.8,0-1.5-0.7-1.5-1.5c0-0.8,0.7-1.5,1.5-1.5
						C315.3,456.2,315.9,456.8,315.9,457.6z"/>
				</g>
				<g>
					<path class="st7" d="M300.5,458.7c0,1-0.8,1.8-1.8,1.8c-1,0-1.8-0.8-1.8-1.8c0-1,0.8-1.8,1.8-1.8
						C299.8,457,300.5,457.8,300.5,458.7z"/>
					<circle class="st7" cx="295.8" cy="460.1" r="0.7"/>
				</g>
			</g>
			<g>
				<rect x="-1.5" y="464.4" class="st8" width="515" height="47.6"/>
				<g>
					<path class="st9" d="M70.2,461.8H1.1c-1.4,0-2.6,1.1-2.6,2.6c0,1.4,1.2,2.6,2.6,2.6h69.1c1.4,0,2.6-1.1,2.6-2.6
						C72.8,463,71.6,461.8,70.2,461.8z"/>
					<path class="st9" d="M415.3,461.8H146.7c-1.4,0-2.6,1.1-2.6,2.6c0,1.4,1.2,2.6,2.6,2.6h268.6c1.4,0,2.6-1.1,2.6-2.6
						C417.9,463,416.7,461.8,415.3,461.8z"/>
					<path class="st9" d="M510.9,461.8h-17.7c-1.4,0-2.6,1.1-2.6,2.6c0,1.4,1.2,2.6,2.6,2.6h17.7c1.4,0,2.6-1.1,2.6-2.6
						C513.5,463,512.3,461.8,510.9,461.8z"/>
				</g>
				<g>
					<path class="st9" d="M14.3,489H1.4c-0.4,0-0.8,0.4-0.8,0.8c0,0.5,0.3,0.8,0.8,0.8h12.9c0.4,0,0.8-0.4,0.8-0.8
						C15,489.3,14.7,489,14.3,489z"/>
					<path class="st9" d="M99.1,489H73.4c-0.4,0-0.8,0.4-0.8,0.8c0,0.5,0.3,0.8,0.8,0.8h25.8c0.4,0,0.8-0.4,0.8-0.8
						C99.9,489.3,99.6,489,99.1,489z"/>
					<path class="st9" d="M184,489h-25.8c-0.4,0-0.8,0.4-0.8,0.8c0,0.5,0.3,0.8,0.8,0.8H184c0.4,0,0.8-0.4,0.8-0.8
						C184.8,489.3,184.4,489,184,489z"/>
					<path class="st9" d="M353.7,489H328c-0.4,0-0.8,0.4-0.8,0.8c0,0.5,0.3,0.8,0.8,0.8h25.8c0.4,0,0.8-0.4,0.8-0.8
						C354.5,489.3,354.2,489,353.7,489z"/>
					<path class="st9" d="M268.9,489h-25.8c-0.4,0-0.8,0.4-0.8,0.8c0,0.5,0.3,0.8,0.8,0.8h25.8c0.4,0,0.8-0.4,0.8-0.8
						C269.6,489.3,269.3,489,268.9,489z"/>
					<path class="st9" d="M438.6,489h-25.8c-0.4,0-0.8,0.4-0.8,0.8c0,0.5,0.3,0.8,0.8,0.8h25.8c0.4,0,0.8-0.4,0.8-0.8
						C439.4,489.3,439,489,438.6,489z"/>
					<path class="st9" d="M510.6,489h-12.9c-0.4,0-0.8,0.4-0.8,0.8c0,0.5,0.3,0.8,0.8,0.8h12.9c0.4,0,0.8-0.4,0.8-0.8
						C511.3,489.3,511,489,510.6,489z"/>
				</g>
			</g>
		</g>
		<path class="st10" d="M495.7,481.9c0,6.5-84.4,11.8-188.6,11.8c-104.2,0-188.6-5.3-188.6-11.8c0-6.5,84.4-11.8,188.6-11.8
			C411.2,470.2,495.7,475.4,495.7,481.9z"/>
	</g>
	<g>
		<g>
			<g>
				<g>
					<path class="st11" d="M195.1,408.5c-19.5,0-35.3,15.8-35.3,35.3c0,19.5,15.8,35.3,35.3,35.3c19.5,0,35.3-15.8,35.3-35.3
						C230.4,424.3,214.6,408.5,195.1,408.5z"/>
					<path class="st12" d="M195.1,427.7c-8.8,0-16,7.2-16,16c0,8.8,7.2,16,16,16c8.8,0,16-7.2,16-16
						C211.1,434.9,204,427.7,195.1,427.7z"/>
				</g>
				<g>
					<path class="st13" d="M195.2,433.6c-0.9,0-1.5,0.7-1.5,1.5c0,0.9,0.7,1.5,1.5,1.5c0.9,0,1.5-0.7,1.5-1.5
						C196.8,434.3,196.1,433.6,195.2,433.6z"/>
					<path class="st13" d="M189.5,435.5c-0.7,0.5-0.8,1.5-0.3,2.2s1.5,0.8,2.2,0.3s0.8-1.5,0.3-2.2S190.2,435,189.5,435.5z"/>
					<path class="st13" d="M186.1,440.4c-0.3,0.8,0.2,1.7,1,1.9c0.8,0.3,1.7-0.2,1.9-1c0.3-0.8-0.2-1.7-1-1.9
						C187.2,439.2,186.3,439.6,186.1,440.4z"/>
					<path class="st13" d="M186.1,446.4c0.3,0.8,1.1,1.3,1.9,1c0.8-0.3,1.3-1.1,1-1.9c-0.3-0.8-1.1-1.3-1.9-1
						C186.3,444.7,185.8,445.6,186.1,446.4z"/>
					<path class="st13" d="M189.7,451.2c0.7,0.5,1.7,0.3,2.2-0.3c0.5-0.7,0.3-1.7-0.3-2.2c-0.7-0.5-1.7-0.3-2.2,0.3
						S189,450.7,189.7,451.2z"/>
					<path class="st13" d="M195.4,453c0.9,0,1.5-0.7,1.5-1.5c0-0.9-0.7-1.5-1.5-1.5s-1.5,0.7-1.5,1.5
						C193.9,452.3,194.5,453,195.4,453z"/>
					<path class="st13" d="M201.1,451.1c0.7-0.5,0.8-1.5,0.3-2.2c-0.5-0.7-1.5-0.8-2.2-0.3c-0.7,0.5-0.8,1.5-0.3,2.2
						C199.4,451.5,200.4,451.6,201.1,451.1z"/>
					<path class="st13" d="M204.6,446.2c0.3-0.8-0.2-1.7-1-1.9c-0.8-0.3-1.7,0.2-1.9,1c-0.3,0.8,0.2,1.7,1,1.9
						C203.4,447.5,204.3,447.1,204.6,446.2z"/>
					<path class="st13" d="M204.5,440.3c-0.3-0.8-1.1-1.3-1.9-1c-0.8,0.3-1.3,1.1-1,1.9c0.3,0.8,1.1,1.3,1.9,1
						C204.3,441.9,204.8,441.1,204.5,440.3z"/>
					<path class="st13" d="M200.9,435.4c-0.7-0.5-1.7-0.3-2.2,0.3s-0.3,1.7,0.3,2.2s1.7,0.3,2.2-0.3S201.6,435.9,200.9,435.4z"/>
				</g>
				<g>
					<path class="st13" d="M195.1,439.3c-2.5,0-4.5,2-4.5,4.5c0,2.5,2,4.5,4.5,4.5c2.5,0,4.5-2,4.5-4.5
						C199.6,441.3,197.6,439.3,195.1,439.3z"/>
					<path class="st12" d="M195.1,441.7c-1.1,0-2,0.9-2,2c0,1.1,0.9,2,2,2c1.1,0,2-0.9,2-2C197.2,442.6,196.2,441.7,195.1,441.7z"/>
				</g>
			</g>
			<g>
				<image style="overflow:visible;" width="128" height="127" xlink:href="BC22D163.png"  transform="matrix(1 0 0 1 131 380)">
				</image>
			</g>
		</g>
		<path class="st13" d="M468.4,358.7h-82.8v-46.1c0.1-0.1,0.2-0.1,0.3-0.3c16.6,0,33.3-0.1,49.9,0.1
			C437.5,312.3,459.4,346.1,468.4,358.7z"/>
		<path class="st14" d="M358.5,234.1v155.5h-269V233.9c0-5.1,4.1-9.1,9.1-9.1h251c6.2,0,8.9,2.2,8.9,8.5V234.1L358.5,234.1z"/>
		<path class="st15" d="M492.3,375.6c0-3.1-0.9-6.2-2.6-8.8c-18.8-29.5-37.8-58.9-56.7-88.4c-2.6-4-7-6.4-11.8-6.4
			c-11.6,0.1-23.1,0.1-34.8,0.1h-25.3c-1.7,0-3.1,1.4-3.1,3.1V453h11.6c0-0.1,0-0.1,0-0.2c-1.8-21,11.3-41.3,31.7-46.9
			c29.6-8.1,56.5,14.1,56.5,42.5c0,1.6-0.1,3-0.2,4.6h1.6c0.3,0.3,0.9,0.5,1.4,0.5h22.9c1.6,0,3-0.1,4.1-0.5
			c3.6-0.9,4.9-3.4,4.9-8.5C492.4,421.6,492.5,398.6,492.3,375.6z M377.3,364.3v-53.7c0-1.7,1.4-3.1,3.1-3.1H437c1,0,2,0.5,2.6,1.4
			l36.3,53.7c1.4,2.1-0.1,4.9-2.6,4.9h-92.9C378.7,367.5,377.3,366.1,377.3,364.3z"/>
		<g>
			<g>
				<g>
					<path class="st16" d="M433.2,308.4h-46c-4.8,0-8.7,3.9-8.7,8.7v40.5c0,4.8,3.9,8.7,8.7,8.7h84.6c2.2,0,3.5-2.5,2.3-4.3
						l-33.7-49.8C438.7,309.9,436,308.4,433.2,308.4z"/>
				</g>
			</g>
			<path class="st0" d="M398.2,313.3h32.4c3.7,0,7.2,1.8,9.4,4.9l25,36.4l-29.7-32.2c-1.7-1.8-3.9-3-6.3-3.5L398.2,313.3z"/>
		</g>
		<g>
			<g>
				<path class="st17" d="M223.4,260.7c-31.7,0-63.2,0-94.8,0c0,4.4,0,8.5,0,13.1c31.7,0,63.2,0,94.8,0
					C223.4,269.3,223.4,265.1,223.4,260.7z"/>
			</g>
			<path class="st17" d="M114.6,260.6c-1.3-0.1-2.3-0.2-3.3-0.2c-3.2,0-6.3,0-9.6,0c0,4.9,0,9.2,0,13.4c4.5,0,8.7,0,13,0
				C114.6,269.4,114.6,265.1,114.6,260.6z"/>
		</g>
		<g>
			<g>
				<path class="st17" d="M345.2,300.7c-31.7,0-63.2,0-94.8,0c0,4.4,0,8.5,0,13.1c31.7,0,63.2,0,94.8,0
					C345.2,309.3,345.2,305.2,345.2,300.7z"/>
			</g>
			<path class="st17" d="M236.4,300.7c-1.3-0.1-2.3-0.2-3.3-0.2c-3.2,0-6.3,0-9.6,0c0,4.9,0,9.2,0,13.4c4.5,0,8.7,0,13,0
				C236.4,309.4,236.4,305.1,236.4,300.7z"/>
		</g>
		<g>
			<g>
				<path class="st17" d="M223.4,342.3c-31.7,0-63.2,0-94.8,0c0,4.4,0,8.5,0,13.1c31.7,0,63.2,0,94.8,0
					C223.4,350.9,223.4,346.7,223.4,342.3z"/>
			</g>
			<path class="st17" d="M114.6,342.2c-1.3-0.1-2.3-0.2-3.3-0.2c-3.2,0-6.3,0-9.6,0c0,4.9,0,9.2,0,13.4c4.5,0,8.7,0,13,0
				C114.6,350.9,114.6,346.6,114.6,342.2z"/>
		</g>
		<line class="st18" x1="396.1" y1="389.6" x2="358.5" y2="389.6"/>
		<path class="st19" d="M367.7,439.1v14H358c-43.1,0.1-86.4,0.1-129.6,0.1v-2c0.1-1,0.1-2,0.1-3c0-24.3-19.7-43.9-43.9-43.9
			c-24.3,0-44,19.6-44,43.9l-0.1,5.1H98.7c-7.1,0-9.3-2.1-9.3-9.1v-54.4h269v34.1c1.4,16.9-2.9,14.9,8.2,15.4
			C367.1,439.1,367.3,439.1,367.7,439.1z"/>
		<g>
			<g>
				<rect x="101.6" y="239.2" class="st17" width="243.6" height="1.7"/>
			</g>
			<g>
				<rect x="101.6" y="252.8" class="st17" width="243.6" height="1.7"/>
			</g>
		</g>
		<g>
			<g>
				<rect x="101.6" y="279.8" class="st17" width="243.6" height="1.7"/>
			</g>
			<g>
				<rect x="101.6" y="293.4" class="st17" width="243.6" height="1.7"/>
			</g>
		</g>
		<g>
			<g>
				<rect x="101.6" y="320.4" class="st17" width="243.6" height="1.7"/>
			</g>
			<g>
				<rect x="101.6" y="333.9" class="st17" width="243.6" height="1.7"/>
			</g>
		</g>
		<g>
			<g>
				<rect x="101.6" y="361" class="st17" width="243.6" height="1.7"/>
			</g>
			<g>
				<rect x="101.6" y="374.5" class="st17" width="243.6" height="1.7"/>
			</g>
		</g>
		<g>
			<g>
				<g>
					<path class="st13" d="M413.6,409.4c-21.3,0-38.6,17.3-38.6,38.6c0,21.3,17.3,38.6,38.6,38.6c21.3,0,38.6-17.3,38.6-38.6
						C452.2,426.7,434.9,409.4,413.6,409.4z"/>
					<path class="st12" d="M413.6,430.5c-9.7,0-17.5,7.9-17.5,17.5c0,9.7,7.9,17.5,17.5,17.5c9.7,0,17.5-7.9,17.5-17.5
						C431.1,438.4,423.3,430.5,413.6,430.5z"/>
				</g>
				<g>
					<path class="st13" d="M413.7,437c-0.9,0-1.7,0.8-1.7,1.7c0,0.9,0.8,1.7,1.7,1.7c0.9,0,1.7-0.8,1.7-1.7
						C415.4,437.8,414.6,437,413.7,437z"/>
					<path class="st13" d="M407.5,439.1c-0.8,0.5-0.9,1.6-0.4,2.4c0.5,0.8,1.6,0.9,2.4,0.4s0.9-1.6,0.4-2.4
						C409.3,438.7,408.2,438.5,407.5,439.1z"/>
					<path class="st13" d="M403.7,444.4c-0.3,0.9,0.2,1.8,1.1,2.1c0.9,0.3,1.8-0.2,2.1-1.1c0.3-0.9-0.2-1.8-1.1-2.1
						C404.9,443.1,404,443.6,403.7,444.4z"/>
					<path class="st13" d="M403.7,451c0.3,0.9,1.2,1.4,2.1,1.1c0.9-0.3,1.4-1.2,1.1-2.1c-0.3-0.9-1.2-1.4-2.1-1.1
						S403.4,450.1,403.7,451z"/>
					<path class="st13" d="M407.6,456.3c0.8,0.5,1.8,0.4,2.4-0.4c0.5-0.8,0.4-1.8-0.4-2.4c-0.8-0.5-1.8-0.4-2.4,0.4
						C406.7,454.7,406.9,455.7,407.6,456.3z"/>
					<path class="st13" d="M413.9,458.2c0.9,0,1.7-0.8,1.7-1.7s-0.8-1.7-1.7-1.7s-1.7,0.8-1.7,1.7S413,458.2,413.9,458.2z"/>
					<path class="st13" d="M420.1,456.1c0.8-0.5,0.9-1.6,0.4-2.4s-1.6-0.9-2.4-0.4c-0.8,0.5-0.9,1.6-0.4,2.4
						S419.4,456.7,420.1,456.1z"/>
					<path class="st13" d="M423.9,450.8c0.3-0.9-0.2-1.8-1.1-2.1c-0.9-0.3-1.8,0.2-2.1,1.1c-0.3,0.9,0.2,1.8,1.1,2.1
						C422.7,452.2,423.6,451.7,423.9,450.8z"/>
					<path class="st13" d="M423.9,444.2c-0.3-0.9-1.2-1.4-2.1-1.1c-0.9,0.3-1.4,1.2-1.1,2.1c0.3,0.9,1.2,1.4,2.1,1.1
						C423.7,446.1,424.2,445.1,423.9,444.2z"/>
					<path class="st13" d="M420,439c-0.8-0.5-1.8-0.4-2.4,0.4c-0.5,0.8-0.4,1.8,0.4,2.4c0.8,0.5,1.8,0.4,2.4-0.4
						C420.9,440.6,420.7,439.5,420,439z"/>
				</g>
				<g>
					<path class="st13" d="M413.6,443.2c-2.7,0-4.9,2.2-4.9,4.9c0,2.7,2.2,4.9,4.9,4.9c2.7,0,4.9-2.2,4.9-4.9
						C418.5,445.3,416.3,443.2,413.6,443.2z"/>
					<path class="st12" d="M413.6,445.8c-1.2,0-2.2,1-2.2,2.2c0,1.2,1,2.2,2.2,2.2c1.2,0,2.2-1,2.2-2.2
						C415.8,446.8,414.8,445.8,413.6,445.8z"/>
				</g>
			</g>
			<g>
				<image style="overflow:visible;" width="133" height="132" xlink:href="BC22D161.png"  transform="matrix(1 0 0 1 347 382)">
				</image>
			</g>
		</g>
		<g>
			<g>
				<g>
					<path class="st13" d="M184.6,409.4c-21.3,0-38.6,17.3-38.6,38.6c0,21.3,17.3,38.6,38.6,38.6c21.3,0,38.6-17.3,38.6-38.6
						C223.3,426.7,206,409.4,184.6,409.4z"/>
					<path class="st12" d="M184.6,430.5c-9.7,0-17.5,7.9-17.5,17.5c0,9.7,7.9,17.5,17.5,17.5c9.7,0,17.5-7.9,17.5-17.5
						C202.2,438.4,194.3,430.5,184.6,430.5z"/>
				</g>
				<g>
					<path class="st13" d="M184.7,437c-0.9,0-1.7,0.8-1.7,1.7c0,0.9,0.8,1.7,1.7,1.7c0.9,0,1.7-0.8,1.7-1.7
						C186.4,437.8,185.7,437,184.7,437z"/>
					<path class="st13" d="M178.5,439.1c-0.8,0.5-0.9,1.6-0.4,2.4c0.5,0.8,1.6,0.9,2.4,0.4c0.8-0.5,0.9-1.6,0.4-2.4
						C180.3,438.7,179.3,438.5,178.5,439.1z"/>
					<path class="st13" d="M174.7,444.4c-0.3,0.9,0.2,1.8,1.1,2.1s1.8-0.2,2.1-1.1c0.3-0.9-0.2-1.8-1.1-2.1
						C176,443.1,175,443.6,174.7,444.4z"/>
					<path class="st13" d="M174.8,451c0.3,0.9,1.2,1.4,2.1,1.1c0.9-0.3,1.4-1.2,1.1-2.1c-0.3-0.9-1.2-1.4-2.1-1.1
						C175,449.2,174.5,450.1,174.8,451z"/>
					<path class="st13" d="M178.7,456.3c0.8,0.5,1.8,0.4,2.4-0.4c0.5-0.8,0.4-1.8-0.4-2.4c-0.8-0.5-1.8-0.4-2.4,0.4
						C177.8,454.7,177.9,455.7,178.7,456.3z"/>
					<path class="st13" d="M184.9,458.2c0.9,0,1.7-0.8,1.7-1.7s-0.8-1.7-1.7-1.7c-0.9,0-1.7,0.8-1.7,1.7S184,458.2,184.9,458.2z"/>
					<path class="st13" d="M191.2,456.1c0.8-0.5,0.9-1.6,0.4-2.4c-0.5-0.8-1.6-0.9-2.4-0.4c-0.8,0.5-0.9,1.6-0.4,2.4
						C189.3,456.5,190.4,456.7,191.2,456.1z"/>
					<path class="st13" d="M195,450.8c0.3-0.9-0.2-1.8-1.1-2.1c-0.9-0.3-1.8,0.2-2.1,1.1c-0.3,0.9,0.2,1.8,1.1,2.1
						C193.7,452.2,194.7,451.7,195,450.8z"/>
					<path class="st13" d="M194.9,444.2c-0.3-0.9-1.2-1.4-2.1-1.1c-0.9,0.3-1.4,1.2-1.1,2.1c0.3,0.9,1.2,1.4,2.1,1.1
						C194.7,446.1,195.2,445.1,194.9,444.2z"/>
					<path class="st13" d="M191,439c-0.8-0.5-1.8-0.4-2.4,0.4c-0.5,0.8-0.4,1.8,0.4,2.4c0.8,0.5,1.8,0.4,2.4-0.4
						C191.9,440.6,191.7,439.5,191,439z"/>
				</g>
				<g>
					<path class="st13" d="M184.6,443.2c-2.7,0-4.9,2.2-4.9,4.9c0,2.7,2.2,4.9,4.9,4.9c2.7,0,4.9-2.2,4.9-4.9
						C189.5,445.3,187.3,443.2,184.6,443.2z"/>
					<path class="st12" d="M184.6,445.8c-1.2,0-2.2,1-2.2,2.2c0,1.2,1,2.2,2.2,2.2c1.2,0,2.2-1,2.2-2.2
						C186.9,446.8,185.9,445.8,184.6,445.8z"/>
				</g>
			</g>
			<g>
				<image style="overflow:visible;" width="133" height="132" xlink:href="BC22D167.png"  transform="matrix(1 0 0 1 118 382)">
				</image>
			</g>
		</g>
		<path class="st20" d="M495.7,430.5v12.8c0,1.8-1.5,3.3-3.3,3.3h-34.8v6.9h38.1h6.4v-6.9v-16.1H495.7z"/>
		<path class="st20" d="M494.9,410.5h-22.3c-0.2,0-0.3-0.1-0.3-0.3V405c0-0.2,0.1-0.3,0.3-0.3h22.3c0.2,0,0.3,0.1,0.3,0.3v5.2
			C495.1,410.4,495,410.5,494.9,410.5z"/>
		<path class="st20" d="M494.9,419.2h-22.3c-0.2,0-0.3-0.1-0.3-0.3v-5.2c0-0.2,0.1-0.3,0.3-0.3h22.3c0.2,0,0.3,0.1,0.3,0.3v5.2
			C495.1,419,495,419.2,494.9,419.2z"/>
		<path class="st20" d="M494.9,427.8h-22.3c-0.2,0-0.3-0.1-0.3-0.3v-5.2c0-0.2,0.1-0.3,0.3-0.3h22.3c0.2,0,0.3,0.1,0.3,0.3v5.2
			C495.1,427.7,495,427.8,494.9,427.8z"/>
		<g>
			<g>
				<path class="st21" d="M464.5,438.8c-1.4-13.3-7.4-25.5-16.8-34c-9.3-8.5-21.6-13.4-34-13.3c-12.4-0.1-24.7,4.8-34,13.3
					c-9.3,8.5-15.4,20.7-16.8,34c-0.8-6.7,0.2-13.5,2.3-20.1c2.3-6.5,6-12.6,10.7-17.7c9.4-10.4,23.6-16.5,37.8-16.5
					c14.2,0,28.4,6.1,37.8,16.5C461.1,411.2,466,425.4,464.5,438.8z"/>
			</g>
		</g>
		<g>
			<g>
				<path class="st21" d="M235.8,438.8c-1.4-13.3-7.4-25.5-16.8-34c-9.3-8.5-21.6-13.4-34-13.3c-12.4-0.1-24.7,4.8-34,13.3
					c-9.3,8.5-15.4,20.7-16.8,34c-0.8-6.7,0.2-13.5,2.3-20.1c2.3-6.5,6-12.6,10.7-17.7c9.4-10.4,23.6-16.5,37.8-16.5
					c14.2,0,28.4,6.1,37.8,16.5C232.4,411.2,237.3,425.4,235.8,438.8z"/>
			</g>
		</g>
		<g>
			<polygon class="st15" points="89.4,341.1 39.6,343.3 89.4,345.6 			"/>
			<polygon class="st15" points="89.4,423.5 39.6,425.7 89.4,428 			"/>
			<polygon class="st15" points="89.4,334.8 53.1,336.1 89.4,337.5 			"/>
			<polygon class="st14" points="89.4,349.9 8.4,353.5 89.4,357.1 			"/>
			<polygon class="st14" points="89.4,410.7 8.4,415.2 89.4,419.7 			"/>
			<polygon class="st14" points="89.4,369.6 8.4,373.6 89.4,377.7 			"/>
			<polygon class="st15" points="89.4,389.2 62.7,393.2 89.4,397.3 			"/>
		</g>
	</g>
	<g>
		<g>
			<linearGradient id="SVGID_1_" gradientUnits="userSpaceOnUse" x1="409.9363" y1="166.901" x2="410.4414" y2="216.6481">
				<stop  offset="0" style="stop-color:#FAD15F"/>
				<stop  offset="0.4889" style="stop-color:#FACF5E"/>
				<stop  offset="0.665" style="stop-color:#F9C85B"/>
				<stop  offset="0.7905" style="stop-color:#F9BD56"/>
				<stop  offset="0.892" style="stop-color:#F8AC4F"/>
				<stop  offset="0.9779" style="stop-color:#F69646"/>
				<stop  offset="1" style="stop-color:#F68F43"/>
			</linearGradient>
			<path class="st22" d="M425,191.9L425,191.9l-14.7-25.7l-14.7,25.5l0.1,0c-1.3,2.3-2,5-2,7.8c0,9.2,7.5,16.7,16.7,16.7
				c9.2,0,16.7-7.5,16.7-16.7C427,196.8,426.2,194.2,425,191.9z"/>
			<path class="st15" d="M419.7,196.2L419.7,196.2l-5.5-9.6l-5.5,9.6l0,0c-0.5,0.9-0.8,1.9-0.8,2.9c0,3.4,2.8,6.2,6.2,6.2
				c3.4,0,6.2-2.8,6.2-6.2C420.4,198.1,420.1,197.1,419.7,196.2z"/>
			<path class="st15" d="M414,208.8c3-0.1,5.6-2,7.1-4.4c1.4-2.5,2.1-5.4,1-8c-1.2-2.5-3-5.1-4.4-7.7l-4.4-7.8l1.3,0
				c-2.9,4.7-5.8,9.4-8.9,14c2.4-5,5-9.9,7.7-14.7l0.6-1.1l0.6,1.1l4.6,7.7c1.4,2.7,3,5,4.3,8c1.3,3.1,0.2,6.6-1.6,9
				C420.1,207.6,417,209,414,208.8z"/>
		</g>
		<path class="st20" d="M445.4,209.9c-4.1-0.7-7.9-2-9.7-6.3c-1-2.4-2.2-4.7-3.3-7c-0.8-1.7-1.7-3.3-1.1-5.3
			c0.1-0.3-0.2-0.8-0.4-1.2c-1.6-2.7-2.2-5.5-1.3-8.5c1.2-4.3,0.4-8-2.9-11.1c-0.4-0.3-0.7-0.7-1-1.1c-1.9-2.2-4.3-3.6-7.3-4.1
			c-4-0.7-7.9-1.7-11.9-2.5c-1.2-0.2-1.5-1-1.3-2c0.2-1,0.5-2,2.1-1.7c1.6,0.4,3.3,0.8,5,1c7.8,1.3,15.3,3.2,21.3,8.7
			c0.3,0.3,0.8,0.3,1.2,0.5c0.9,0.3,1.9,0.6,2.6,1.1c1.1,0.7,2,1.4,3.4,1.4c4,0.2,7.6,1.6,10.2,4.9c1.1,1.4,2.2,2.9,3.4,4.2
			c1.3,1.3,1.3,2.7,0.4,4.2c-0.8,1.2-0.7,2.5-0.2,3.9c2.2,5.3,4.3,10.7,6.4,16c0.9,2.3,0.4,3.6-2,3.9
			C455.6,209.5,450.3,210.1,445.4,209.9z M446.7,191.4c-0.3-0.6-1.9-0.4-3.1-0.4c2.9,1.8,3.1,4.2,2.4,7c-0.4,1.5-0.5,3-0.8,4.5
			c-0.1,0.6-0.5,1.2-0.8,1.8c-0.2,0-0.3,0-0.5-0.1c-0.1-0.5-0.2-1-0.2-1.5c0.1-2.1,0.4-4.2,0.4-6.2c0-0.9-0.4-2.2-1.1-2.6
			c-1.3-0.9-2.8-1.4-4.3-1.8c-1.3-0.4-3,1.8-2.4,3.1c0.9,2.2,1.7,4.4,2.9,6.4c1.7,3,4.9,3.8,8,4.1c2.1,0.2,4.2,0,6.8,0
			C451.3,200.7,449.1,196,446.7,191.4z"/>
		<path class="st20" d="M460.7,205.5c-0.2,11.5-5.8,22.6-14.8,29.4c-8.9,6.9-20.9,9.5-31.7,6.7c-10.8-2.6-20.1-10.3-24.5-20.3
			c-4.6-9.9-4.4-21.8,0.5-31.3c-4.5,9.7-4.2,21.4,0.6,30.8c4.7,9.5,13.8,16.4,24,18.4c10.2,2.2,21-0.7,28.9-7.2
			c7.9-6.5,12.4-16.5,12.2-26.5H460.7z"/>
		<g>
			<g>
				<g>
					<linearGradient id="SVGID_2_" gradientUnits="userSpaceOnUse" x1="429.8894" y1="212.4422" x2="430.4598" y2="225.8785">
						<stop  offset="0" style="stop-color:#FAD15F"/>
						<stop  offset="0.4889" style="stop-color:#FACF5E"/>
						<stop  offset="0.665" style="stop-color:#F9C85B"/>
						<stop  offset="0.7905" style="stop-color:#F9BD56"/>
						<stop  offset="0.892" style="stop-color:#F8AC4F"/>
						<stop  offset="0.9779" style="stop-color:#F69646"/>
						<stop  offset="1" style="stop-color:#F68F43"/>
					</linearGradient>
					<path class="st23" d="M434.5,219.5L434.5,219.5l-4.2-7.3l-4.2,7.3l0,0c-0.4,0.7-0.6,1.4-0.6,2.2c0,2.6,2.1,4.8,4.8,4.8
						c2.6,0,4.8-2.1,4.8-4.8C435,220.9,434.8,220.2,434.5,219.5z"/>
				</g>
			</g>
		</g>
	</g>
</g>
</svg>
